<?xml version="1.0" encoding="UTF-8" standalone="no" ?>
<!DOCTYPE svg PUBLIC "-//W3C//DTD SVG 1.1//EN" "http://www.w3.org/Graphics/SVG/1.1/DTD/svg11.dtd">
<svg xmlns="http://www.w3.org/2000/svg" xmlns:xlink="http://www.w3.org/1999/xlink" version="1.1" width="1080" height="1080" viewBox="0 0 1080 1080" xml:space="preserve">
<desc>Created with Fabric.js 5.2.4</desc>
<defs>
</defs>
<g transform="matrix(1 0 0 1 540 540)" id="33187756-df5a-4d04-b693-823bac6f2641"  >
<rect style="stroke: none; stroke-width: 1; stroke-dasharray: none; stroke-linecap: butt; stroke-dashoffset: 0; stroke-linejoin: miter; stroke-miterlimit: 4; fill: rgb(255,255,255); fill-rule: nonzero; opacity: 1; visibility: hidden;" vector-effect="non-scaling-stroke"  x="-540" y="-540" rx="0" ry="0" width="1080" height="1080" />
</g>
<g transform="matrix(1 0 0 1 540 540)" id="32823b12-0946-43f2-a20e-90de49d1ae03"  >
</g>
<g transform="matrix(0 0 0 0 0 0)"  >
<g style=""   >
</g>
</g>
<g transform="matrix(0 0 0 0 0 0)"  >
<g style=""   >
</g>
</g>
<g transform="matrix(1 0 0 1 129.07 107.15)"  >
<rect style="stroke: none; stroke-width: 1; stroke-dasharray: none; stroke-linecap: butt; stroke-dashoffset: 0; stroke-linejoin: miter; stroke-miterlimit: 4; fill: rgb(255,255,255); fill-opacity: 0; fill-rule: nonzero; opacity: 1;" vector-effect="non-scaling-stroke"  x="-50" y="-50" rx="0" ry="0" width="100" height="100" />
</g>
<g transform="matrix(0.42 0 0 -0.42 540 258.86)"  >
<path style="stroke: none; stroke-width: 1; stroke-dasharray: none; stroke-linecap: butt; stroke-dashoffset: 0; stroke-linejoin: miter; stroke-miterlimit: 4; fill: rgb(137,225,240); fill-rule: nonzero; opacity: 1;" vector-effect="non-scaling-stroke"  transform=" translate(-1744.56, -2104.34)" d="M 1488 2679 C 1458 2662 1449 2634 1462 2606 C 1468 2592 1477 2580 1482 2580 C 1486 2580 1490 2513 1490 2430 L 1490 2280 L 1430 2280 L 1370 2280 L 1370 2315 C 1370 2337 1378 2358 1390 2370 C 1417 2397 1416 2435 1388 2454 C 1359 2475 1337 2474 1317 2452 C 1296 2429 1295 2392 1314 2371 C 1325 2359 1329 2322 1331 2221 L 1332 2088 L 1259 2044 L 1185 2001 L 1182 2237 C 1180 2463 1181 2474 1200 2492 C 1226 2516 1227 2566 1201 2580 C 1136 2614 1077 2543 1130 2495 C 1148 2478 1150 2464 1150 2308 L 1150 2140 L 1090 2140 L 1030 2140 L 1030 2229 C 1030 2299 1033 2319 1045 2324 C 1063 2331 1065 2391 1048 2408 C 1030 2426 985 2422 967 2402 C 945 2378 946 2358 970 2327 C 987 2306 990 2287 990 2201 L 990 2100 L 1070 2100 L 1150 2100 L 1150 2041 L 1150 1981 L 1074 1938 L 998 1895 L 1002 1728 L 1005 1560 L 943 1560 L 880 1560 L 880 1818 C 880 2064 881 2076 900 2088 C 930 2106 927 2155 894 2177 C 870 2192 865 2192 841 2179 C 806 2160 799 2107 829 2088 C 849 2076 850 2067 850 1798 L 850 1520 L 950 1520 L 1049 1520 L 1042 1603 C 1038 1648 1035 1728 1035 1780 L 1035 1874 L 1115 1920 C 1159 1946 1313 2035 1457 2118 C 1602 2202 1722 2270 1725 2270 C 1728 2270 1730 2219 1730 2156 C 1730 2067 1727 2040 1715 2030 C 1690 2009 1696 1961 1725 1948 C 1771 1927 1811 1988 1775 2024 C 1763 2035 1760 2065 1760 2155 L 1760 2272 L 1803 2248 C 1826 2234 1982 2145 2149 2049 L 2453 1875 L 2448 1698 L 2443 1520 L 2541 1520 L 2640 1520 L 2640 1795 C 2640 2057 2641 2071 2660 2090 C 2686 2116 2685 2145 2659 2171 C 2633 2197 2602 2192 2577 2158 L 2556 2130 L 2578 2100 C 2599 2072 2600 2063 2600 1815 L 2600 1560 L 2540 1560 L 2480 1560 L 2483 1727 L 2485 1894 L 2413 1939 L 2340 1983 L 2340 2041 L 2340 2100 L 2420 2100 L 2500 2100 L 2500 2210 C 2500 2278 2504 2320 2510 2320 C 2516 2320 2525 2331 2532 2345 C 2548 2380 2520 2420 2480 2420 C 2425 2420 2402 2368 2440 2330 C 2457 2313 2460 2297 2460 2225 L 2460 2140 L 2400 2140 L 2340 2140 L 2340 2306 C 2340 2457 2342 2474 2360 2497 C 2385 2529 2385 2552 2362 2573 C 2316 2615 2244 2569 2268 2515 C 2275 2501 2284 2490 2290 2490 C 2296 2490 2300 2407 2300 2250 C 2300 2118 2297 2010 2293 2010 C 2288 2010 2256 2027 2220 2048 L 2155 2086 L 2152 2219 C 2150 2343 2151 2354 2170 2372 C 2195 2396 2196 2424 2170 2450 C 2148 2472 2128 2475 2099 2460 C 2072 2445 2073 2385 2100 2368 C 2114 2359 2120 2344 2120 2318 L 2120 2280 L 2055 2280 L 1990 2280 L 1990 2423 C 1990 2554 1992 2569 2010 2585 C 2041 2613 2036 2656 1999 2675 C 1971 2690 1966 2690 1944 2675 C 1914 2656 1912 2610 1940 2585 C 1958 2568 1960 2554 1960 2408 L 1960 2250 L 2040 2250 L 2120 2250 L 2120 2180 C 2120 2110 2120 2109 2098 2121 C 2085 2128 2002 2176 1912 2227 C 1822 2279 1742 2319 1735 2316 C 1728 2314 1646 2268 1555 2216 C 1463 2163 1384 2120 1379 2120 C 1374 2120 1370 2149 1370 2185 L 1370 2250 L 1450 2250 L 1530 2250 L 1530 2413 C 1530 2564 1531 2576 1550 2588 C 1576 2604 1575 2644 1548 2670 C 1524 2692 1513 2694 1488 2679 z" stroke-linecap="round" />
</g>
<g transform="matrix(-0.42 0 0 0.42 540 822.19)"  >
<path style="stroke: none; stroke-width: 1; stroke-dasharray: none; stroke-linecap: butt; stroke-dashoffset: 0; stroke-linejoin: miter; stroke-miterlimit: 4; fill: rgb(137,225,240); fill-rule: nonzero; opacity: 1;" vector-effect="non-scaling-stroke"  transform=" translate(-1744.56, -2104.34)" d="M 1488 2679 C 1458 2662 1449 2634 1462 2606 C 1468 2592 1477 2580 1482 2580 C 1486 2580 1490 2513 1490 2430 L 1490 2280 L 1430 2280 L 1370 2280 L 1370 2315 C 1370 2337 1378 2358 1390 2370 C 1417 2397 1416 2435 1388 2454 C 1359 2475 1337 2474 1317 2452 C 1296 2429 1295 2392 1314 2371 C 1325 2359 1329 2322 1331 2221 L 1332 2088 L 1259 2044 L 1185 2001 L 1182 2237 C 1180 2463 1181 2474 1200 2492 C 1226 2516 1227 2566 1201 2580 C 1136 2614 1077 2543 1130 2495 C 1148 2478 1150 2464 1150 2308 L 1150 2140 L 1090 2140 L 1030 2140 L 1030 2229 C 1030 2299 1033 2319 1045 2324 C 1063 2331 1065 2391 1048 2408 C 1030 2426 985 2422 967 2402 C 945 2378 946 2358 970 2327 C 987 2306 990 2287 990 2201 L 990 2100 L 1070 2100 L 1150 2100 L 1150 2041 L 1150 1981 L 1074 1938 L 998 1895 L 1002 1728 L 1005 1560 L 943 1560 L 880 1560 L 880 1818 C 880 2064 881 2076 900 2088 C 930 2106 927 2155 894 2177 C 870 2192 865 2192 841 2179 C 806 2160 799 2107 829 2088 C 849 2076 850 2067 850 1798 L 850 1520 L 950 1520 L 1049 1520 L 1042 1603 C 1038 1648 1035 1728 1035 1780 L 1035 1874 L 1115 1920 C 1159 1946 1313 2035 1457 2118 C 1602 2202 1722 2270 1725 2270 C 1728 2270 1730 2219 1730 2156 C 1730 2067 1727 2040 1715 2030 C 1690 2009 1696 1961 1725 1948 C 1771 1927 1811 1988 1775 2024 C 1763 2035 1760 2065 1760 2155 L 1760 2272 L 1803 2248 C 1826 2234 1982 2145 2149 2049 L 2453 1875 L 2448 1698 L 2443 1520 L 2541 1520 L 2640 1520 L 2640 1795 C 2640 2057 2641 2071 2660 2090 C 2686 2116 2685 2145 2659 2171 C 2633 2197 2602 2192 2577 2158 L 2556 2130 L 2578 2100 C 2599 2072 2600 2063 2600 1815 L 2600 1560 L 2540 1560 L 2480 1560 L 2483 1727 L 2485 1894 L 2413 1939 L 2340 1983 L 2340 2041 L 2340 2100 L 2420 2100 L 2500 2100 L 2500 2210 C 2500 2278 2504 2320 2510 2320 C 2516 2320 2525 2331 2532 2345 C 2548 2380 2520 2420 2480 2420 C 2425 2420 2402 2368 2440 2330 C 2457 2313 2460 2297 2460 2225 L 2460 2140 L 2400 2140 L 2340 2140 L 2340 2306 C 2340 2457 2342 2474 2360 2497 C 2385 2529 2385 2552 2362 2573 C 2316 2615 2244 2569 2268 2515 C 2275 2501 2284 2490 2290 2490 C 2296 2490 2300 2407 2300 2250 C 2300 2118 2297 2010 2293 2010 C 2288 2010 2256 2027 2220 2048 L 2155 2086 L 2152 2219 C 2150 2343 2151 2354 2170 2372 C 2195 2396 2196 2424 2170 2450 C 2148 2472 2128 2475 2099 2460 C 2072 2445 2073 2385 2100 2368 C 2114 2359 2120 2344 2120 2318 L 2120 2280 L 2055 2280 L 1990 2280 L 1990 2423 C 1990 2554 1992 2569 2010 2585 C 2041 2613 2036 2656 1999 2675 C 1971 2690 1966 2690 1944 2675 C 1914 2656 1912 2610 1940 2585 C 1958 2568 1960 2554 1960 2408 L 1960 2250 L 2040 2250 L 2120 2250 L 2120 2180 C 2120 2110 2120 2109 2098 2121 C 2085 2128 2002 2176 1912 2227 C 1822 2279 1742 2319 1735 2316 C 1728 2314 1646 2268 1555 2216 C 1463 2163 1384 2120 1379 2120 C 1374 2120 1370 2149 1370 2185 L 1370 2250 L 1450 2250 L 1530 2250 L 1530 2413 C 1530 2564 1531 2576 1550 2588 C 1576 2604 1575 2644 1548 2670 C 1524 2692 1513 2694 1488 2679 z" stroke-linecap="round" />
</g>
<g transform="matrix(0 0 0 0 0 0)"  >
<g style=""   >
</g>
</g>
<g transform="matrix(0 -0.41 -0.41 0 540 428.64)"  >
<path style="stroke: none; stroke-width: 1; stroke-dasharray: none; stroke-linecap: butt; stroke-dashoffset: 0; stroke-linejoin: miter; stroke-miterlimit: 4; fill: rgb(137,225,240); fill-rule: nonzero; opacity: 1;" vector-effect="non-scaling-stroke"  transform=" translate(-768.95, -758.5)" d="M 741 920 C 714 887 706 882 690 890 C 657 908 582 902 560 880 C 543 863 540 847 540 760 C 540 673 543 657 560 640 C 582 618 657 612 690 630 C 705 638 714 633 743 598 L 777 557 L 883 614 C 994 673 1009 685 992 702 C 985 709 953 696 891 661 C 841 633 797 610 792 610 C 787 610 769 628 752 649 C 723 685 720 695 720 760 C 720 825 723 835 752 871 C 769 892 787 910 790 910 C 794 910 839 887 890 859 C 952 825 985 811 992 818 C 998 824 999 833 996 839 C 990 848 789 960 778 960 C 775 960 759 942 741 920 z" stroke-linecap="round" />
</g>
<g transform="matrix(0.41 0 0 -0.41 540 703.4)"  >
<path style="stroke: none; stroke-width: 1; stroke-dasharray: none; stroke-linecap: butt; stroke-dashoffset: 0; stroke-linejoin: miter; stroke-miterlimit: 4; fill: rgb(137,225,240); fill-rule: nonzero; opacity: 1;" vector-effect="non-scaling-stroke"  transform=" translate(-180.2, -760)" d="M 100 918 C 2 868 -28 751 33 659 C 60 618 131 580 180 580 C 200 580 236 590 260 602 C 392 669 392 851 260 918 C 236 930 200 940 180 940 C 160 940 124 930 100 918 z M 244 824 C 301 766 261 670 180 670 C 129 670 90 709 90 760 C 90 841 186 881 244 824 z" stroke-linecap="round" />
</g>
<g transform="matrix(0 -0.84 -0.34 0 540.45 581.46)"  >
<path style="stroke: none; stroke-width: 1; stroke-dasharray: none; stroke-linecap: butt; stroke-dashoffset: 0; stroke-linejoin: miter; stroke-miterlimit: 4; fill: rgb(137,225,240); fill-rule: nonzero; opacity: 1;" vector-effect="non-scaling-stroke"  transform=" translate(-439, -750)" d="M 387 833 C 397 796 397 713 387 673 L 378 640 L 439 640 L 500 640 L 500 750 L 500 860 L 440 860 L 380 860 L 387 833 z" stroke-linecap="round" />
</g>
</svg>